<?xml version="1.0" encoding="UTF-8"?>
<!DOCTYPE svg  PUBLIC '-//W3C//DTD SVG 1.1//EN'  'http://www.w3.org/Graphics/SVG/1.1/DTD/svg11.dtd'>
<svg enable-background="new 0 0 595.28 841.89" version="1.1" viewBox="0 0 595.28 841.89" xml:space="preserve" xmlns="http://www.w3.org/2000/svg">
<circle cx="297.64" cy="420.94" r="263.45" fill="#289548"/>
	<ellipse cx="297.64" cy="421.23" rx="198.22" ry="195.68" fill="none"/>
	<path d="m61.209 363.51l43.593 6.268-1.786 12.423-31.17-4.482 30.01 12.546-1.221 8.495-32.375 3.901 31.169 4.482-1.442 10.028-43.593-6.268 2.514-17.485 24.063-2.994-22.286-9.365 2.529-17.55z" fill="#fff"/>
	<path d="m109.43 330.2l9.792 3.843-12.106 30.845-40.997-16.09 12.106-30.845 9.46 3.713-7.261 18.501 5.947 2.334 5.87-14.957 9.101 3.572-5.871 14.957 6.698 2.629 7.26-18.48z" fill="#fff"/>
	<path d="m120.64 331.12l-36.904-24.036 9.298-14.275c4.038-6.2 8.899-9.644 14.583-10.331 5.685-0.688 10.942 0.542 15.772 3.688 5.516 3.592 8.922 8.167 10.219 13.722 1.297 5.556 0.226 10.974-3.213 16.254l-9.76 14.99zm-1.12-16.85l1.919-2.947c1.221-1.874 1.341-4.048 0.36-6.523-0.981-2.474-3.04-4.733-6.176-6.776-2.685-1.749-5.374-2.685-8.066-2.809-2.692-0.123-4.743 0.896-6.151 3.06l-1.919 2.947 20.039 13.05z" fill="#fff"/>
	<path d="m121.77 256.21l32.633 29.576-9.078 10.017-32.633-29.576 9.08-10.02z" fill="#fff"/>
	<path d="m166.41 252.73l10.041-7.241c2.965 4.55 4.039 9.019 3.221 13.407-0.817 4.389-3.151 8.155-7 11.297-4.632 3.782-9.624 5.304-14.976 4.564-5.352-0.739-10.232-3.808-14.64-9.206-4.367-5.348-6.541-10.765-6.522-16.251s2.444-10.202 7.276-14.147c4.515-3.687 9.005-5.27 13.47-4.75s8.542 2.716 12.233 6.589l-9.343 8.504c-1.864-2.282-3.648-3.575-5.353-3.877s-3.148 0.03-4.331 0.996c-3.299 2.694-2.241 7.356 3.173 13.987 3.034 3.716 5.524 5.89 7.47 6.521 1.947 0.633 3.694 0.316 5.244-0.949 2.77-2.26 2.78-5.41 0.04-9.44z" fill="#fff"/>
	<path d="m209.99 245.52l-6.272-6.495-10.417 5.54 1.741 8.904-9.69 5.153-8.675-45.269 12.62-6.711 32.874 32.399-12.18 6.49zm-19.17-10.52l6.291-3.346-9.145-9.607 2.86 12.96z" fill="#fff"/>
	<path d="m250.6 219.29l3.228 10.315-29.468 9.222-13.152-42.031 12.902-4.038 9.925 31.716 16.56-5.18z" fill="#fff"/>
	<path d="m318.83 181.14l0.705 44.036-12.549 0.201-0.504-31.486-7.643 31.616-8.58 0.138-8.973-31.351 0.504 31.486-10.13 0.162-0.705-44.036 17.663-0.282 6.762 23.287 5.723-23.487 17.73-0.29z" fill="#fff"/>
	<path d="m348.49 231.91l-0.536-9.013-11.514-2.574-4.475 7.893-10.71-2.394 22.875-40.015 13.949 3.118 3.873 45.994-13.45-3.02zm-7.71-20.47l6.954 1.555-0.69-13.246-6.26 11.69z" fill="#fff"/>
	<path d="m399.34 252.03l-13.627-6.238 1.16-17.991-3.876-1.774-7.01 15.314-12.292-5.626 18.33-40.046 20.917 9.575c4.616 2.112 7.705 4.834 9.269 8.163 1.563 3.33 1.534 6.765-0.086 10.304-1.057 2.308-2.459 4.132-4.208 5.472-1.749 1.341-4.36 2.032-7.833 2.074l-0.74 20.79zm-12.42-34.57l5.252 2.404c1.545 0.707 2.935 0.953 4.169 0.737s2.138-0.949 2.711-2.201c1.172-2.562 0.185-4.564-2.965-6.005l-5.662-2.592-3.5 7.65z" fill="#fff"/>
	<path d="m438.6 226.13l-24.45 36.631-11.244-7.505 24.45-36.631 11.24 7.5z" fill="#fff"/>
	<path d="m463.33 246.03l-17.97 21.142c-2.759 3.245-5.149 5.468-7.173 6.67s-4.302 1.581-6.832 1.138c-2.531-0.444-5.239-1.891-8.123-4.343-2.541-2.16-4.605-4.38-6.194-6.662l6.813-8.014c1.094 1.635 2.264 2.982 3.509 4.042 1.476 1.253 2.813 1.805 4.015 1.654 1.2-0.151 2.56-1.119 4.078-2.906l17.971-21.142 9.9 8.42z" fill="#fff"/>
	<path d="m495.78 282.09l-22.35 18.741c-4.235 3.552-8.335 4.849-12.296 3.89-3.962-0.959-7.637-3.457-11.022-7.495-3.565-4.252-5.54-8.415-5.923-12.486-0.383-4.073 1.437-7.794 5.458-11.167l22.894-19.197 8.831 10.532-21.682 18.181c-1.615 1.355-2.508 2.684-2.678 3.988s0.373 2.704 1.627 4.2c1.048 1.249 2.173 2.047 3.377 2.395 1.204 0.349 2.21 0.317 3.017-0.094 0.807-0.41 2.19-1.438 4.152-3.083l19.754-16.564 6.84 8.16z" fill="#fff"/>
	<path d="m475.89 335.23l6.444-6.324-5.623-10.373-8.891 1.812-5.23-9.648 45.197-9.037 6.813 12.565-32.135 33.133-6.57-12.12zm10.37-19.26l3.396 6.264 9.533-9.221-12.93 2.96z" fill="#fff"/>
	<path d="m493.47 385.32l-3.065-10.566 15.327-17.006c1.966-2.182 4.441-4.526 7.43-7.032-2.528 1.473-4.744 2.485-6.645 3.037l-20.481 5.942-3.057-10.535 42.296-12.272 3.561 12.271-12.633 14.35c-2.509 2.856-4.784 5.128-6.825 6.817 3.423-1.71 7.025-3.113 10.806-4.21l12.519-3.632 3.065 10.566-42.31 12.26z" fill="#fff"/>
	<path d="m495.89 414.96l8.49-3.072-0.801-11.771-8.839-2.049-0.745-10.95 44.862 10.576 0.971 14.26-43.003 16.77-0.94-13.77zm17.44-13.2l0.483 7.109 12.505-4.422-12.99-2.69z" fill="#fff"/>
	<path d="m495.86 420.95c0-108.07-88.748-195.68-198.22-195.68-109.48 0-198.22 87.61-198.22 195.68 0 108.06 88.747 195.67 198.22 195.67 109.48 0 198.22-87.61 198.22-195.67z" fill="none"/>
	<path d="m108.15 554.46l5.77 8.64-8.157 5.447-18.815-28.172 8.157-5.447 6.039 9.042 17.414-11.63c-3.814-2.419-6.5-4.505-8.059-6.258l8.237-5.501c4.603 4.453 8.983 6.636 13.142 6.549l5.304 7.941-29.02 19.39z" fill="#fff"/>
	<path d="m122.13 587.22c-3.696-3.816-5.12-8.292-4.27-13.428 0.85-5.135 3.724-10.075 8.622-14.819 5.021-4.864 10.087-7.563 15.2-8.098 5.111-0.535 9.516 1.105 13.212 4.922 3.876 4.001 5.298 8.568 4.266 13.701s-3.958 10.033-8.779 14.703c-4.913 4.759-9.933 7.398-15.06 7.917-5.12 0.53-9.52-1.1-13.19-4.89zm6.81-6.41c1.287 1.328 2.993 1.396 5.119 0.206s4.656-3.207 7.592-6.051c4.033-3.906 6.378-6.755 7.039-8.548 0.659-1.792 0.496-3.197-0.492-4.217-1.197-1.236-2.839-1.301-4.925-0.192-2.087 1.107-4.559 3.046-7.417 5.814-3.878 3.756-6.296 6.555-7.252 8.396-0.96 1.83-0.85 3.36 0.33 4.59z" fill="#fff"/>
	<path d="m155.56 616.01c-4.325-3.086-6.533-7.231-6.625-12.436-0.091-5.205 1.843-10.582 5.804-16.133 4.06-5.69 8.556-9.261 13.487-10.71s9.56-0.631 13.884 2.455c4.535 3.235 6.758 7.472 6.67 12.706-0.089 5.234-2.082 10.583-5.979 16.047-3.973 5.567-8.434 9.07-13.383 10.507-4.95 1.43-9.57 0.62-13.86-2.44zm5.54-7.54c1.505 1.074 3.196 0.834 5.072-0.721 1.875-1.555 4-3.996 6.374-7.323 3.261-4.569 5.053-7.796 5.379-9.678 0.325-1.881-0.09-3.234-1.246-4.059-1.401-1-3.027-0.767-4.879 0.7-1.853 1.466-3.934 3.818-6.245 7.058-3.136 4.396-5.009 7.584-5.618 9.567s-0.2 3.46 1.18 4.45z" fill="#fff"/>
	<path d="m231.08 606.07l-42.366 29.336-5.563-2.479 42.538-29.26 5.39 2.4zm-35.52 8.61c-2.496-1.111-4.053-2.941-4.671-5.49-0.619-2.548-0.228-5.394 1.173-8.537 1.427-3.202 3.302-5.387 5.624-6.555 2.321-1.167 4.729-1.195 7.225-0.083 2.593 1.156 4.162 3.026 4.705 5.611 0.543 2.586 0.128 5.421-1.247 8.505-1.401 3.144-3.268 5.297-5.599 6.46-2.31 1.16-4.72 1.19-7.19 0.08zm1.97-4.38c1.384 0.617 2.953-1.039 4.704-4.969 0.797-1.787 1.313-3.3 1.549-4.537 0.235-1.237-0.066-2.043-0.905-2.417-1.346-0.6-2.864 0.997-4.553 4.788-1.042 2.339-1.625 4.027-1.75 5.066-0.13 1.04 0.19 1.73 0.95 2.07zm11.94 34.71c-2.48-1.105-4.032-2.932-4.654-5.479-0.623-2.546-0.234-5.389 1.165-8.528 1.425-3.197 3.296-5.386 5.615-6.563 2.317-1.178 4.726-1.21 7.226-0.096 2.421 1.078 3.976 2.871 4.664 5.376 0.688 2.506 0.289 5.426-1.197 8.762-1.39 3.119-3.254 5.263-5.591 6.432-2.34 1.17-4.75 1.21-7.23 0.1zm2.01-4.36c1.405 0.626 2.981-1.021 4.728-4.94 0.795-1.783 1.314-3.296 1.56-4.537 0.245-1.242-0.058-2.053-0.909-2.432-1.385-0.617-2.917 0.956-4.593 4.719-1.065 2.392-1.656 4.102-1.771 5.131s0.21 1.71 0.98 2.06z" fill="#fff"/>
	<path d="m285.2 661.11l-10.914-1.387-9.514-20.824c-1.221-2.671-2.388-5.875-3.5-9.613 0.346 2.906 0.395 5.341 0.146 7.304l-2.688 21.157-10.882-1.383 5.551-43.69 12.675 1.61 8.146 17.297c1.623 3.438 2.805 6.428 3.543 8.972-0.209-3.82-0.064-7.684 0.432-11.588l1.643-12.932 10.914 1.388-5.55 43.68z" fill="#fff"/>
	<path d="m323.04 659.5l-3.126-8.471-11.766 0.875-1.993 8.851-10.945 0.813 10.295-44.928 14.254-1.06 17.039 42.896-13.75 1.03zm-13.31-17.36l7.105-0.528-4.5-12.477-2.61 13.01z" fill="#fff"/>
	<path d="m352.7 620.06l7.715 32.59-12.464 2.95-7.716-32.59-8.885 2.104-2.431-10.267 30.235-7.158 2.431 10.268-8.89 2.11z" fill="#fff"/>
	<path d="m393.3 593.35l11.513 26.799c2.183 5.079 2.244 9.378 0.186 12.896-2.059 3.519-5.509 6.317-10.351 8.397-5.1 2.191-9.654 2.884-13.664 2.078s-7.05-3.62-9.122-8.442l-11.793-27.45 12.628-5.426 11.17 25.998c0.832 1.938 1.848 3.175 3.048 3.713 1.2 0.537 2.696 0.421 4.49-0.35 1.498-0.644 2.587-1.491 3.267-2.545 0.68-1.053 0.939-2.024 0.778-2.915s-0.746-2.512-1.756-4.864l-10.177-23.686 9.77-4.2z" fill="#fff"/>
	<path d="m454.46 604.82l-12.258 8.622-14.952-10.074-3.486 2.452 9.689 13.775-11.057 7.778-25.339-36.022 18.816-13.235c4.151-2.92 8.06-4.216 11.723-3.887s6.615 2.086 8.855 5.27c1.46 2.076 2.328 4.208 2.604 6.394 0.275 2.187-0.444 4.79-2.159 7.811l17.58 11.12zm-36.12-6.7l4.725-3.323c1.39-0.978 2.303-2.054 2.738-3.229 0.437-1.175 0.259-2.324-0.533-3.45-1.621-2.305-3.849-2.461-6.681-0.469l-5.094 3.583 4.84 6.89z" fill="#fff"/>
	<path d="m480.27 578.68l-8.038-4.114-8.062 8.614 4.529 7.861-7.5 8.013-22.863-40.021 9.768-10.436 41.593 20.011-9.43 10.08zm-21.55-3.75l4.869-5.202-11.763-6.129 6.89 11.33z" fill="#fff"/>
	<path d="m502.54 528.89l9.107 5.821-16.631 26.016-37.107-23.721 7.281-11.391 28 17.899 9.35-14.63z" fill="#fff"/>
<circle cx="297.64" cy="420.94" r="188.18" fill="#fff"/>
<linearGradient id="p" x1="113.23" x2="482.05" y1="420.94" y2="420.94" gradientUnits="userSpaceOnUse">
	<stop stop-color="#272526" offset="0"/>
	<stop stop-color="#434244" offset=".5"/>
	<stop stop-color="#272526" offset="1"/>
</linearGradient>
<circle cx="297.64" cy="420.94" r="184.41" fill="url(#p)"/>
	<linearGradient id="o" x1="353.23" x2="332.87" y1="522.51" y2="471.81" gradientUnits="userSpaceOnUse">
		<stop stop-color="#3A693E" offset="0"/>
		<stop stop-color="#9EBF50" offset=".5"/>
		<stop stop-color="#2E5834" offset="1"/>
	</linearGradient>
	<path d="m387.97 526.19c-7.688-5.151-17.176-11.507-24.712-13.359l0.058 1.289-11.192-5.285 0.156 3.435-8.144-5.345 0.208 4.604-1.494-1.855c-2.595-3.221-4.904-5.692-7.429-7.058l0.674 4.115-1.413-0.79c-4.453-2.492-6.895-4.793-9.555-7.545l0.208 4.642-1.5-1.901c-2.681-3.4-5.851-5.958-8.688-8.094-0.029 0.426 4e-3 1.043 0.016 1.297l0.084 1.635-1.323-0.966c-4.57-3.334-6.502-6.324-8.372-9.217-0.896-1.388-1.823-2.821-3.038-4.267l-1.243-0.989 1.463-1.604 22.741 5.032-0.799 0.756c3.67 0.056 6.842 0.186 9.172 1.551l0.983 0.577-0.597 0.476c4.032 0.147 7.213 0.337 8.997 1.811l0.595 0.489-1.199 1.491c4.722 0.428 8.204 0.879 10.58 2.716l0.847 0.656-1.422 0.974c3.417 0.785 7.486 3.055 11.145 5.271l1.219 0.739-2.387 1.171c18.784 11.684 26.747 18.566 26.575 22.93l-0.055 1.395-1.17-0.79z" fill="url(#o)"/>
		<linearGradient id="n" x1="348.95" x2="328.52" y1="523.77" y2="472.91" gradientTransform="matrix(.999 -.0451 .0451 .999 -18.059 14.329)" gradientUnits="userSpaceOnUse">
		<stop stop-color="#3A693E" offset="0"/>
		<stop stop-color="#9EBF50" offset=".5"/>
		<stop stop-color="#2E5834" offset="1"/>
	</linearGradient>
	<path d="m303.06 480.96c3.8 4.493 4.631 8.533 11.325 13.414-0.076-1.479-0.056-2.438 0.674-2.376 2.921 2.178 6.454 4.929 9.39 8.651l-0.193-4.295c3.219 3.359 5.675 6.025 10.809 8.901l-0.648-3.961c3.339 1.261 6.182 4.335 9.043 7.886l-0.17-3.749 8.144 5.345-0.146-3.202 11.194 5.283-0.045-1.014c7.563 1.492 16.931 7.639 25.971 13.695 0.2-5.097-13.834-14.596-27.406-22.981l2.372-1.163c-4.932-2.991-9.48-5.352-12.844-5.445l2.201-1.507c-2.408-1.862-6.126-2.203-11.624-2.683l1.63-2.03c-1.865-1.542-5.808-1.519-10.639-1.711l1.356-1.077c-2.542-1.49-6.423-1.402-10.706-1.473l1.126-1.066-20.866-4.615-0.597 0.653 0.67 0.53z" fill="url(#n)"/>
	<linearGradient id="m" x1="197.25" x2="290.99" y1="511.47" y2="503.56" gradientUnits="userSpaceOnUse">
		<stop stop-color="#3A693E" offset="0"/>
		<stop stop-color="#9EBF50" offset=".5"/>
		<stop stop-color="#2E5834" offset="1"/>
	</linearGradient>
	<path d="m217.13 532.76c-0.566-4.335 6.747-11.907 24.401-25.233l-2.482-0.95 1.147-0.849c3.439-2.536 7.286-5.165 10.625-6.255l-1.505-0.844 0.785-0.728c2.201-2.043 5.627-2.808 10.291-3.657l-1.328-1.377 0.546-0.542c1.644-1.631 4.796-2.103 8.799-2.615l-0.639-0.419 0.926-0.662c2.199-1.571 5.339-1.987 8.992-2.374l-0.865-0.685 22.194-7.056 1.603 1.461-1.147 1.103c-1.081 1.549-1.875 3.061-2.644 4.524-1.601 3.05-3.255 6.199-7.508 9.935l-1.23 1.079-0.063-1.637c-0.01-0.252-0.033-0.873-0.102-1.294-2.63 2.379-5.555 5.211-7.924 8.845l-1.322 2.03-0.211-4.643c-2.334 2.894-4.643 5.506-8.83 8.376l-1.336 0.913 0.301-4.158c-2.39 1.588-4.467 4.258-6.762 7.697l-1.32 1.982-0.208-4.603-7.629 6.058-0.154-3.434-10.672 6.271-0.057-1.289c-7.335 2.524-16.213 9.71-23.406 15.531l-1.084 0.879-0.18-1.4z" fill="url(#m)"/>
		<linearGradient id="l" x1="192.58" x2="286.38" y1="508.85" y2="500.93" gradientTransform="matrix(.999 -.0451 .0451 .999 -18.059 14.329)" gradientUnits="userSpaceOnUse">
		<stop stop-color="#3A693E" offset="0"/>
		<stop stop-color="#9EBF50" offset=".5"/>
		<stop stop-color="#2E5834" offset="1"/>
	</linearGradient>
	<path d="m298.87 480.57c-3.38 4.818-3.843 8.917-10.068 14.383-0.058-1.48-0.165-2.436-0.887-2.308-2.711 2.43-5.981 5.491-8.571 9.463l-0.194-4.295c-2.901 3.635-5.105 6.515-9.957 9.839l0.29-4.002c-3.212 1.558-5.766 4.875-8.294 8.668l-0.169-3.747-7.629 6.056-0.144-3.201-10.672 6.271-0.045-1.013c-7.398 2.164-16.172 9.133-24.629 15.978-0.661-5.057 12.46-15.783 25.223-25.355l-2.468-0.945c4.642-3.425 8.96-6.185 12.3-6.58l-2.328-1.305c2.23-2.071 5.903-2.745 11.335-3.719l-1.808-1.874c1.721-1.706 5.648-2.035 10.443-2.664l-1.452-0.951c2.4-1.717 6.267-1.975 10.526-2.434l-1.217-0.96 20.364-6.475 0.653 0.596-0.59 0.55z" fill="url(#l)"/>
	<linearGradient id="k" x1="397.37" x2="332.28" y1="471.73" y2="445.19" gradientUnits="userSpaceOnUse">
		<stop stop-color="#3A693E" offset="0"/>
		<stop stop-color="#9EBF50" offset=".5"/>
		<stop stop-color="#2E5834" offset="1"/>
	</linearGradient>
	<path d="m340.05 482.28l-0.026 1.846-9.962-2.455 0.063 1.415-1.056-0.322c-6.896-2.098-11.809-2.954-16.958-2.954-2.679 0-5.537 0.238-8.994 0.751l-0.947 0.14 0.146-2.585 0.539-0.151c1.265-0.353 2.463-0.68 3.607-0.989 7.856-2.137 13.045-3.548 19.708-8.404l1.173-0.854 0.066 1.426 9.925-6.604 0.129 2.834 9.351-7.722 0.095 2.045 8.946-5.209 0.064 1.436 9.544-5.748 0.101 2.191 10.101-5.047 0.131 2.895 3.696-3.607 0.07 1.544 5.993-3.19 0.132 2.968 12.513-6.052-2.195 4.937 8.055-3.769 0.046 1.039 4.903-2.307 0.105 2.316c8.949-2.016 15.215-3.231 23.997-3.231 1.121 0 2.304 0.019 3.516 0.058l2.599 0.086-2.217 1.359c-8.625 5.292-15.471 8.236-22.648 9.718l0.651 1.17-0.684 0.378c-2.489 1.377-5.037 2.67-8.505 3.405l2.902 1.406-1.21 0.748c-3.341 2.061-5.94 3.221-10.182 3.523l1.81 3.595-0.831 0.296c-3.264 1.17-5.974 2.065-8.651 2.065-0.195 0-0.387-5e-3 -0.577-0.014l2.482 3.179-1.055 0.346c-2.961 0.971-5.631 1.444-8.164 1.444-1.015 0-2.002-0.075-2.979-0.227l3.266 3.314-1.365 0.311c-1.514 0.344-2.863 0.509-4.129 0.509-1.873 0-3.377-0.353-5.118-0.761-0.304-0.072-0.61-0.144-0.926-0.215l3.04 3.398-14.383-0.314 1.776 2.984-10.922-1.228 0.985 2.851-11.55-2.03z" fill="url(#k)"/>
		<linearGradient id="j" x1="394.39" x2="328.94" y1="474.5" y2="447.82" gradientTransform="matrix(.999 -.0451 .0451 .999 -18.059 14.329)" gradientUnits="userSpaceOnUse">
		<stop stop-color="#3A693E" offset="0"/>
		<stop stop-color="#9EBF50" offset=".5"/>
		<stop stop-color="#2E5834" offset="1"/>
	</linearGradient>
	<path d="m303.06 478.72c9.938-2.777 15.8-3.855 23.565-9.513l0.062 1.354 9.925-6.604 0.137 3.018 9.354-7.723 0.08 1.771 8.945-5.207 0.065 1.458 9.547-5.75 0.094 2.081 10.101-5.046 0.155 3.436 3.695-3.609 0.048 1.041 5.993-3.193 0.129 2.917 11.661-5.638-2.179 4.896 8.889-4.156 0.047 1.04 4.904-2.307 0.095 2.082c10.928-2.478 17.402-3.715 28.222-3.362-8.315 5.103-15.363 8.323-23.444 9.824l0.795 1.423c-3.249 1.799-6.201 3.188-10.685 3.717l3.841 1.861c-3.706 2.288-6.37 3.32-11.006 3.471l1.95 3.875c-4.045 1.449-7.405 2.559-10.772 1.739l2.989 3.83c-5.013 1.644-9.239 1.842-13.327 0.603l4.155 4.219c-5.364 1.218-7.362-0.112-12.144-0.938l3.405 3.812-13.994-0.306 1.694 2.844-10.592-1.191 0.961 2.774-11.145-1.896-0.024 1.774-10.022-2.471 0.063 1.355c-10.632-3.237-16.951-3.615-26.294-2.23l0.07-1.05z" fill="url(#j)"/>
	<linearGradient id="i" x1="162.3" x2="264.2" y1="498.26" y2="450.86" gradientUnits="userSpaceOnUse">
		<stop stop-color="#3A693E" offset="0"/>
		<stop stop-color="#9EBF50" offset=".5"/>
		<stop stop-color="#2E5834" offset="1"/>
	</linearGradient>
	<path d="m252.19 485.27l-10.768 2.207 1.501-3.131-14.296 1.61 2.721-3.659c-0.307 0.099-0.605 0.197-0.901 0.296-2.071 0.689-3.86 1.283-6.435 1.283-0.858 0-1.758-0.064-2.752-0.196l-1.389-0.186 2.953-3.598c-1.559 0.388-3.167 0.58-4.861 0.58-1.977 0-4.052-0.258-6.345-0.787l-1.082-0.248 2.187-3.39c-0.555 0.076-1.128 0.115-1.728 0.115-2.337 0-4.745-0.575-7.648-1.326l-0.854-0.222 1.476-3.742c-0.17 5e-3 -0.336 7e-3 -0.5 7e-3 -3.968 0-6.656-0.953-9.958-2.6l-1.272-0.636 2.764-1.659c-3.519-0.421-6.171-1.48-8.775-2.628l-0.716-0.316 0.543-1.223c-7.276-0.824-14.361-3.14-23.434-7.635l-2.331-1.154 2.581-0.318c4.01-0.495 7.485-0.728 10.934-0.728 5.483 0 10.665 0.602 16.754 1.409l-0.105-2.32 5.091 1.856-0.047-1.039 8.362 3.026-2.632-4.719 13.008 4.896-0.135-2.966 6.254 2.64-0.069-1.544 4.007 3.259-0.131-2.896 10.513 4.117-0.099-2.193 10.028 4.87-0.064-1.436 9.377 4.375-0.092-2.046 10.012 6.85-0.129-2.837 10.476 5.684-0.063-1.425 1.244 0.745c7.076 4.235 12.372 5.174 20.389 6.594 1.168 0.207 2.39 0.424 3.681 0.66l0.548 0.101 0.379 2.563-0.955-0.057c-1.601-0.09-3.037-0.132-4.394-0.132-7.11 0-12.868 1.263-21.253 4.669l-1.023 0.415-0.063-1.415-9.696 3.344-0.192-1.837-11.32 2.998 0.72-2.89z" fill="url(#i)"/>
		<linearGradient id="h" x1="164.45" x2="260.33" y1="492.74" y2="448.13" gradientTransform="matrix(.999 -.0451 .0451 .999 -18.059 14.329)" gradientUnits="userSpaceOnUse">
		<stop stop-color="#3A693E" offset="0"/>
		<stop stop-color="#9EBF50" offset=".5"/>
		<stop stop-color="#2E5834" offset="1"/>
	</linearGradient>
	<path d="m299.29 478.31c-10.149-1.871-16.084-2.416-24.328-7.351l0.061 1.354-10.475-5.683 0.138 3.02-10.013-6.85 0.08 1.77-9.377-4.376 0.065 1.459-10.027-4.869 0.095 2.083-10.514-4.117 0.155 3.437-4.007-3.261 0.046 1.041-6.253-2.64 0.132 2.915-12.121-4.563 2.611 4.681-9.228-3.339 0.048 1.042-5.092-1.855 0.094 2.081c-11.107-1.483-17.668-2.131-28.414-0.804 8.744 4.331 16.055 6.907 24.237 7.668l-0.663 1.49c3.396 1.498 6.463 2.619 10.974 2.739l-3.657 2.2c3.9 1.944 6.645 2.734 11.275 2.465l-1.591 4.034c4.157 1.075 7.604 1.881 10.885 0.762l-2.633 4.083c5.141 1.186 9.368 1.003 13.328-0.604l-3.758 4.58c5.451 0.726 7.322-0.778 12.011-2.03l-3.05 4.103 13.91-1.566-1.43 2.984 10.44-2.141-0.706 2.85 10.927-2.896 0.185 1.769 9.754-3.363 0.062 1.353c10.295-4.181 16.555-5.128 25.983-4.591l-0.14-1.04z" fill="url(#h)"/>
	<linearGradient id="g" x1="380.89" x2="344.05" y1="358.7" y2="452.09" gradientUnits="userSpaceOnUse">
		<stop stop-color="#3A693E" offset="0"/>
		<stop stop-color="#9EBF50" offset=".5"/>
		<stop stop-color="#2E5834" offset="1"/>
	</linearGradient>
	<path d="m302.1 477.06l0.125-0.205c5.042-8.24 9.171-16.367 11.047-21.74l0.849-2.427 0.434 1.682 2.606-9.069 0.486 1.119c0.312-3.399 1.01-6.067 2.266-8.88l0.546-1.223 1.487 2.022 1.505-8.81 1.514-0.104 0.039 0.13c0.847-3.717 2.146-7.051 3.941-10.124l0.866-1.485 0.732 2.187c2.036-3.563 3.307-7.17 3.972-11.228l1.513-0.112 0.71 2.215c0.92-3.503 2.205-6.499 3.965-10.106l1.002-2.059 0.831 4.031c1.466-3.939 2.987-6.838 4.993-9.594l0.856-1.179 0.973 2.635c0.395-2.365 1.028-5.009 1.415-5.441l0.233-0.259 0.383-0.022h0.561l0.215 0.573s0.027 0.081 0.027 0.082l1.81-5.994 2.275 3.597c1.018-3.834 2.644-6.766 5.492-10.023l0.912-1.045 1.636 5.183c0.608-2.355 0.696-4.565 0.783-6.718l0.076-1.843 3.724 2.548c0.177-2.714 0.693-4.659 2.379-7.423l0.696-1.141 2.238 4.011c1.053-3.606 2.141-6.813 4.94-10.199l0.864-1.045 1.458 3.952 2.63-6.125 2.702 4.076c0.067-0.15 0.134-0.298 0.199-0.446 1.64-3.676 3.057-6.851 6.15-10.059l0.675-0.699 1.854 2.794 3.668-6.413 1.603 2.362 1.816-5.443 1.647 2.249 21.583-24.684 1.324 0.769c-2.018 5.813-8.839 24.421-15.25 29.982l1.619 0.874-0.162 0.597c-0.721 2.647-1.986 3.543-3.897 4.156l1.145 1.178-0.117 0.429c-0.55 2.028-1.365 4.142-3.193 5.19l0.812 0.54-0.151 0.545c-0.223 0.801-0.685 1.443-1.276 1.966l1.562-0.11-0.376 1.109c-0.972 2.886-2.68 5.057-5.712 7.162l2.146 0.237-0.344 0.936c-1.311 3.561-2.703 5.941-5.692 7.428l2.238 0.811-3.617 3.96 1.925 0.801-0.92 0.825c-1.188 1.067-2.201 1.916-3.345 2.432l1.938 0.665-0.283 0.751c-1.523 4.051-3.544 5.736-6.766 6.645l2.835 0.824-0.429 0.84c-1.716 3.364-3.494 5.742-6.884 7.274l2.996 0.926-1.106 1.434c-1.282 1.673-2.427 3.169-4.246 4.303l2.997 0.938-5.864 1.653 5.162 0.254-2.404 1.768c-3.091 2.269-6.045 4.444-9.163 5.872 1.326 0.331 2.556 0.833 3.957 1.833l1.269 0.906-11.995 3.823 2.121 1.854-0.452 0.582c-1.388 1.786-4.271 3.361-8.579 4.686l1.9 1.042-1.029 0.721c-3.174 2.221-6.511 4.395-9.613 4.818 0.232 0.414 0.441 0.76 0.554 0.894l0.386 0.232-0.072 0.525c-0.093 0.627-0.115 0.777-10.404 3.333l1.708 2.043-11.38 3.635 1.956 2.207-1.298 0.283c-14.24 3.117-21.18 8.756-29.002 18.074l-1.284 1.529-0.15-3.07z" fill="url(#g)"/>
		<linearGradient id="f" x1="381.01" x2="345.16" y1="361.49" y2="452.37" gradientTransform="matrix(.999 -.0451 .0451 .999 -18.059 14.329)" gradientUnits="userSpaceOnUse">
		<stop stop-color="#3A693E" offset="0"/>
		<stop stop-color="#9EBF50" offset=".5"/>
		<stop stop-color="#2E5834" offset="1"/>
	</linearGradient>
	<path d="m302.89 477.27c5.026-8.217 9.217-16.445 11.119-21.891l0.506 1.96 2.794-9.727 0.932 2.15c0.12-4.91 0.761-8.268 2.384-11.897l1.779 2.425 1.814-10.621 0.974 3.087c0.845-5.488 2.5-9.631 4.426-12.923l0.724 2.156c2.546-4.038 4.161-8.176 4.943-12.95l1.58 4.936c0.891-4.615 2.251-8.032 4.537-12.723l0.936 4.548c1.922-5.799 3.686-9.119 5.821-12.052l1.78 4.822c-0.716-0.419 1.243-9.445 1.484-8.726 0.014 0.313 1.107 1.411 1.107 1.411l1.723-5.711 2.359 3.727c0.961-4.711 2.558-7.857 5.741-11.5l1.948 6.171c1.409-3.521 1.472-6.694 1.595-9.669l3.717 2.544c0.102-3.422 0.479-5.417 2.33-8.452l2.498 4.477c1.285-4.439 2.168-7.913 5.312-11.716l1.667 4.516 2.833-6.596 2.685 4.051c2.047-4.492 3.322-7.988 6.78-11.573l2.015 3.039 3.676-6.427 1.787 2.633 1.839-5.508 1.332 1.817 22.223-25.416c-4.303 12.398-10.708 26.959-15.946 30.35l2.138 1.155c-0.781 2.87-2.224 3.352-4.618 3.964l1.749 1.799c-0.71 2.619-1.7 4.733-4.148 5.195l1.616 1.075c-0.409 1.477-1.924 2.442-4.238 3.217l4.16-0.292c-1.118 3.319-3.264 5.584-7.259 7.944l3.356 0.37c-1.644 4.465-3.313 6.532-7.161 7.731l3.074 1.113-3.579 3.917 1.809 0.753c-2.013 1.806-3.428 2.924-5.926 2.772l4.027 1.382c-1.899 5.049-4.545 6.079-9.294 6.785l4.97 1.444c-2.049 4.016-4.105 6.362-8.624 7.691l4.125 1.275c-1.788 2.315-3.133 4.306-6.115 5.493l2.33 0.729-7.934 2.236 7.737 0.381c-4.241 3.111-7.986 5.966-12.191 7.221 2.652 0.431 4.258 0.716 6.358 2.216l-11.828 3.771 2.607 2.279c-1.622 2.091-5.446 3.72-10.001 4.94l2.463 1.35c-3.353 2.345-7.145 4.856-10.428 4.748 0 0 1.029 2.039 1.352 2.232 0.321 0.195-11.026 3.004-11.026 3.004l1.764 2.11-11.414 3.645 1.867 2.108c-13.701 2.996-20.92 8.194-29.432 18.334l-0.04-0.81z" fill="url(#f)"/>
	<linearGradient id="e" x1="173.15" x2="276.55" y1="370.23" y2="446.39" gradientUnits="userSpaceOnUse">
		<stop stop-color="#3A693E" offset="0"/>
		<stop stop-color="#9EBF50" offset=".5"/>
		<stop stop-color="#2E5834" offset="1"/>
	</linearGradient>
	<path d="m299.49 478.78c-8.636-8.574-16.055-13.568-30.51-15.387l-1.32-0.167 1.75-2.372-11.661-2.593 1.517-2.188c-10.479-1.621-10.515-1.766-10.665-2.382l-0.124-0.507 0.367-0.275c0.098-0.139 0.277-0.505 0.473-0.941-3.141-0.14-6.661-2.014-10.007-3.935l-1.089-0.622 1.797-1.208c-4.408-0.93-7.421-2.237-8.967-3.894l-0.502-0.536 1.944-2.042-12.288-2.725 1.179-1.017c1.304-1.121 2.485-1.731 3.778-2.185-3.225-1.137-6.355-3.03-9.627-5.009l-2.585-1.561 5.12-0.72-5.987-1.117 2.898-1.204c-1.915-0.966-3.191-2.348-4.618-3.897l-1.23-1.328 2.9-1.191c-3.511-1.219-5.499-3.427-7.512-6.622l-0.502-0.799 2.75-1.076c-3.291-0.615-5.454-2.111-7.336-6.007l-0.349-0.724 1.874-0.839c-1.202-0.415-2.293-1.176-3.554-2.118l-0.99-0.739 1.843-0.972-3.961-3.619 2.157-1.008c-3.113-1.212-4.714-3.457-6.34-6.885l-0.428-0.9 2.117-0.43c-3.21-1.824-5.107-3.832-6.334-6.618l-0.472-1.071 1.565-0.031c-0.638-0.467-1.157-1.064-1.45-1.843l-0.199-0.529 0.758-0.61c-1.915-0.88-2.918-2.911-3.649-4.88l-0.155-0.417 1.035-1.277c-1.96-0.438-3.302-1.215-4.257-3.787l-0.215-0.58 1.535-1.018c-6.887-4.959-15.359-22.878-17.891-28.485l1.249-0.886 23.719 22.638 1.44-2.388 2.3 5.257 1.384-2.498 4.229 6.057 1.594-2.949 0.735 0.635c3.371 2.916 5.068 5.951 7.033 9.466 0.079 0.141 0.158 0.282 0.238 0.425l2.325-4.304 3.171 5.862 1.094-4.066 0.954 0.963c3.095 3.119 4.467 6.214 5.842 9.712l1.867-4.197 0.796 1.074c1.927 2.601 2.617 4.491 3.039 7.178l3.478-2.874 0.244 1.84c0.28 2.134 0.568 4.322 1.385 6.61l1.162-5.31 1.004 0.958c3.13 2.989 5.014 5.763 6.371 9.488l1.942-3.787 2.343 5.806c1e-3 -2e-3 0.163-0.683 0.163-0.683l0.65-0.044h0.327l0.27 0.257c0.418 0.425 1.27 2.979 1.867 5.274l0.736-2.725 0.96 1.097c2.245 2.564 4.019 5.313 5.836 9.105l0.463-4.09 1.186 1.959c2.077 3.435 3.626 6.303 4.858 9.708l0.507-2.27 1.517-0.024c1.028 3.98 2.62 7.459 4.967 10.817l0.534-2.237 0.997 1.398c2.064 2.897 3.655 6.102 4.83 9.729l0.029-0.132 1.516-0.033 2.295 8.637 1.294-2.148 0.655 1.171c1.507 2.687 2.441 5.279 3.061 8.638l0.381-1.157 3.413 8.791 0.28-1.711 1.064 2.341c2.356 5.188 7.204 12.91 12.964 20.657l0.142 0.19 0.141 3.07-1.4-1.42z" fill="url(#e)"/>
		<linearGradient id="d" x1="174.64" x2="275.94" y1="366.01" y2="440.63" gradientTransform="matrix(.999 -.0451 .0451 .999 -18.059 14.329)" gradientUnits="userSpaceOnUse">
		<stop stop-color="#3A693E" offset="0"/>
		<stop stop-color="#9EBF50" offset=".5"/>
		<stop stop-color="#2E5834" offset="1"/>
	</linearGradient>
	<path d="m300 477.4c-5.747-7.729-10.661-15.548-13.047-20.798l-0.329 1.995-3.659-9.432-0.733 2.221c-0.564-4.875-1.504-8.158-3.448-11.629l-1.552 2.573-2.767-10.414-0.691 3.162c-1.334-5.391-3.351-9.364-5.565-12.476l-0.527 2.214c-2.901-3.789-4.881-7.765-6.09-12.446l-1.129 5.058c-1.304-4.518-2.965-7.797-5.666-12.263l-0.522 4.613c-2.437-5.601-4.493-8.75-6.882-11.478l-1.341 4.964c0.674-0.483-2.089-9.295-2.264-8.557 0.014 0.312-0.976 1.505-0.976 1.505l-2.232-5.533-2.014 3.926c-1.381-4.607-3.254-7.596-6.754-10.938l-1.384 6.322c-1.721-3.38-2.068-6.535-2.46-9.487l-3.473 2.87c-0.41-3.399-0.967-5.353-3.083-8.208l-2.084 4.686c-1.68-4.306-2.873-7.687-6.348-11.19l-1.251 4.647-3.415-6.314-2.311 4.278c-2.444-4.29-4.03-7.657-7.796-10.915l-1.733 3.208-4.238-6.069-1.544 2.783-2.328-5.321-1.164 1.931-24.423-23.31c5.404 11.96 13.097 25.885 18.619 28.788l-2.026 1.343c1.035 2.788 2.517 3.138 4.958 3.532l-1.582 1.95c0.944 2.543 2.122 4.559 4.6 4.8l-1.51 1.216c0.54 1.435 2.133 2.259 4.509 2.822l-4.17 0.084c1.413 3.206 3.754 5.267 7.945 7.257l-3.309 0.67c2.04 4.299 3.888 6.207 7.831 7.054l-2.964 1.385 3.918 3.579-1.732 0.913c2.167 1.618 3.676 2.603 6.151 2.226l-3.885 1.74c2.346 4.856 5.073 5.644 9.866 5.918l-4.819 1.887c2.404 3.815 4.663 5.967 9.285 6.882l-3.996 1.643c1.991 2.144 3.511 4 6.586 4.913l-2.253 0.936 8.103 1.513-7.673 1.077c4.507 2.72 8.494 5.227 12.795 6.099-2.604 0.667-4.178 1.096-6.134 2.78l12.119 2.686-2.39 2.509c1.805 1.934 5.761 3.213 10.405 4.017l-2.329 1.564c3.549 2.036 7.553 4.197 10.813 3.791 0 0-0.842 2.122-1.146 2.348-0.302 0.219 11.254 1.995 11.254 1.995l-1.567 2.26 11.698 2.601-1.672 2.267c13.909 1.751 21.568 6.278 30.962 15.606l-0.06-0.84z" fill="url(#d)"/>
	<linearGradient id="c" x1="244.35" x2="331.4" y1="309.68" y2="412.55" gradientUnits="userSpaceOnUse">
		<stop stop-color="#3A693E" offset="0"/>
		<stop stop-color="#9EBF50" offset=".5"/>
		<stop stop-color="#2E5834" offset="1"/>
	</linearGradient>
	<path d="m300.23 481.64l-0.033-0.236c-1.498-10.339-3.68-19.961-5.833-25.743l-0.899-2.412 1.541 1.113-4.119-9.398 1.242 0.63c-2.171-3.126-3.468-5.872-4.382-9.145l-0.361-1.293 2.672 0.67-4.908-8.502 1.099-1.047 0.323 0.21c-1.923-3.743-3.182-7.474-3.824-11.34l-0.284-1.699 2.122 1.315c-0.764-4.436-2.207-8.366-4.484-12.25l1.094-1.052 2.304 1.473c-1.706-3.618-2.726-7.044-3.774-11.337l-0.543-2.228 3.502 2.806c-1.547-4.381-2.304-7.89-2.544-11.623l-0.093-1.455 2.799 1.619c-1.412-2.344-2.973-5.325-2.695-6.009l0.197-0.487 0.551-0.018h0.223l0.312 0.183c0.036 0.013 0.083 0.026 0.14 0.04l-2.633-6.233 4.383 1.426c-1.843-3.935-2.531-7.517-2.412-12.237l0.035-1.39 5.03 3.246c-1.134-2.474-2.625-4.428-4.077-6.331l-1.152-1.512 4.854-0.446c-1.763-2.417-2.689-4.392-3.201-7.885l-0.194-1.325 4.673 1.813c-1.696-3.905-2.982-7.205-2.99-12.017l-2e-3 -1.357 3.982 2.31-2.055-6.954 5.063 1.528c-0.057-0.206-0.115-0.41-0.172-0.612-1.175-4.19-2.19-7.809-1.833-12.606l0.071-0.97 3.496 1.056-1.381-7.871 2.991 0.867-2.252-5.791 2.885 0.724 0.899-35.526 1.511-0.254c2.345 6.25 9.565 26.563 8.01 35.551l1.996-0.397 0.256 0.563c1.233 2.712 0.77 4.326-0.426 6.177l1.835 0.197 0.185 0.405c0.95 2.086 1.736 4.432 0.888 6.574l1.104-0.116 0.232 0.515c0.363 0.806 0.453 1.679 0.26 2.672l1.292-1.235 0.421 1.091c1.197 3.1 1.262 6.116 0.15 10.032l2.023-1.334 0.334 0.939c1.384 3.905 1.862 6.862 0.335 10.206l2.476-0.89-0.275 5.79 2.142-0.658-0.18 1.221c-0.258 1.759-0.524 3.21-1.171 4.463l2.166-0.819 0.263 0.759c1.553 4.492 0.988 7.296-1.157 10.328l3.064-1.328 0.208 0.919c0.904 4.028 1.058 7.259-0.773 10.919l3.204-1.327 0.067 1.854c0.091 2.32 0.174 4.39-0.602 6.634l3.071-1.256-3.835 5.565 4.64-3.477-0.744 2.984c-1.013 4.08-1.979 7.979-3.63 11.347 1.382-0.682 2.782-1.143 4.701-1.28l1.551-0.11-7.327 11.445 3.098 0.083 0.024 0.734c0.081 2.463-1.254 5.793-3.971 9.915l2.347-0.453-0.33 1.209c-1.115 4.077-2.399 8.218-4.716 10.684 0.535 0.209 1.007 0.373 1.194 0.402h0.528l0.227 0.434c0.263 0.521 0.348 0.689-6.442 9.914l2.841 0.525-6.957 10.881 3.14 0.486-0.818 1.047c-9.703 12.434-11.58 21.93-11.653 35.1l-0.01 2.001-2.1-2.28z" fill="url(#c)"/>
		<linearGradient id="b" x1="248.25" x2="330.79" y1="312.05" y2="409.6" gradientTransform="matrix(.999 -.0451 .0451 .999 -18.059 14.329)" gradientUnits="userSpaceOnUse">
		<stop stop-color="#3A693E" offset="0"/>
		<stop stop-color="#9EBF50" offset=".5"/>
		<stop stop-color="#2E5834" offset="1"/>
	</linearGradient>
	<path d="m300.97 481.29c-1.495-10.312-3.695-20.056-5.874-25.902l1.773 1.281-4.394-10.028 2.263 1.148c-3.293-4.173-5.081-7.409-6.238-11.554l3.153 0.792-5.827-10.095 2.943 1.895c-3.09-5.151-4.574-9.735-5.252-13.81l2.092 1.297c-0.672-5.122-2.188-9.683-4.836-14.197l4.727 3.021c-2.448-4.459-3.679-8.243-5.016-13.728l3.918 3.142c-2.408-6.154-3.232-10.136-3.484-14.051l4.816 2.787c-0.887 0.143-5.492-8.724-4.795-8.292 0.227 0.251 1.895 0.411 1.895 0.411l-2.51-5.945 4.536 1.475c-2.458-4.586-3.302-8.308-3.171-13.538l5.884 3.796c-1.259-3.905-3.401-6.591-5.353-9.154l4.849-0.445c-2.277-2.919-3.341-4.843-3.899-8.647l5.171 2.007c-1.997-4.584-3.663-8.086-3.675-13.423l4.504 2.611-2.199-7.447 5.032 1.52c-1.401-5.153-2.755-8.945-2.356-14.317l3.778 1.141-1.384-7.887 3.306 0.958-2.277-5.856 2.365 0.593 0.927-36.5c4.985 13.295 9.718 29.841 7.701 36.279l2.58-0.514c1.331 2.927 0.463 4.325-1.105 6.49l2.699 0.29c1.218 2.67 1.852 5.114 0.138 7.188l2.085-0.219c0.681 1.513 0.09 3.36-1.301 5.604l3.257-3.115c1.365 3.535 1.143 6.901-0.545 11.622l3.044-2.006c1.72 4.852 1.759 7.725-0.617 11.38l3.329-1.196-0.272 5.732 2.023-0.621c-0.425 2.895-0.826 4.801-3.012 6.398l4.304-1.627c1.908 5.515 0.422 8.198-3.043 12.061l5.132-2.225c1.071 4.757 0.982 8.131-1.861 12.358l4.314-1.787c0.113 3.162 0.366 5.75-1.293 8.794l2.442-0.999-5.055 7.336 6.7-5.022c-1.377 5.522-2.518 10.484-5.149 14.432 2.505-1.473 4.038-2.344 6.82-2.543l-7.235 11.3 3.745 0.1c0.095 2.86-1.96 6.856-4.907 11.015l2.979-0.575c-1.167 4.267-2.587 8.976-5.393 11.144 0 0 2.266 0.988 2.668 0.928s-7.101 10.109-7.101 10.109l2.928 0.539-6.979 10.915 3.009 0.464c-9.32 11.947-11.738 21.262-11.817 35.575l-0.6-0.65z" fill="url(#b)"/>
	<linearGradient id="a" x1="307.05" x2="287.49" y1="534.83" y2="486.12" gradientUnits="userSpaceOnUse">
		<stop stop-color="#3A693E" offset="0"/>
		<stop stop-color="#9EBF50" offset=".5"/>
		<stop stop-color="#2E5834" offset="1"/>
	</linearGradient>
	<path d="m297.55 478.55l0.029-0.1c0.255-0.859 0.73-1.847 2.166-1.847 0.087 0 0.18 4e-3 0.276 0.012 0.163-6e-3 0.333-0.01 0.503-0.01 0.629 0 1.561 0.044 2.353 0.413l0.23 0.104 0.124 0.222c0.465 0.838 0.801 1.679 0.922 3.063l0.033 0.354-1.307 1.347-1.421 73.1-5.466 0.247 1.57-76.89z" fill="url(#a)"/>
		<linearGradient id="s" x1="301.9" x2="283.15" y1="533.44" y2="486.74" gradientTransform="matrix(.999 -.0451 .0451 .999 -18.059 14.329)" gradientUnits="userSpaceOnUse">
		<stop stop-color="#3A693E" offset="0"/>
		<stop stop-color="#9EBF50" offset=".5"/>
		<stop stop-color="#2E5834" offset="1"/>
	</linearGradient>
	<path d="m298.32 478.67c0.295-0.991 0.688-1.362 1.679-1.275 0.839-0.029 1.806-0.016 2.544 0.328 0.425 0.763 0.719 1.486 0.829 2.752l-1.271 1.311-1.412 72.676-3.904 0.178 1.53-75.98z" fill="url(#s)"/>
	<linearGradient id="r" x1="306.87" x2="288.32" y1="532.91" y2="486.73" gradientUnits="userSpaceOnUse">
		<stop stop-color="#70AC54" offset="0"/>
		<stop stop-color="#F3E94F" offset=".5"/>
		<stop stop-color="#70AC54" offset="1"/>
	</linearGradient>
	<path d="m299.22 479.13c-0.076-0.46 0.03-0.893 0.299-1.229 0.284-0.355 0.734-0.567 1.204-0.567 0.442 0 0.85 0.188 1.116 0.513s0.368 0.76 0.293 1.232l-0.696 73.213-3.863 0.172 1.65-73.32z" fill="url(#r)" opacity=".3"/>
		<linearGradient id="q" x1="301.8" x2="284.06" y1="531.54" y2="487.37" gradientTransform="matrix(.999 -.0451 .0451 .999 -18.059 14.329)" gradientUnits="userSpaceOnUse">
		<stop stop-color="#70AC54" offset="0"/>
		<stop stop-color="#F3E94F" offset=".5"/>
		<stop stop-color="#70AC54" offset="1"/>
	</linearGradient>
	<path d="m300 479.06c-0.265-1.188 1.605-1.323 1.351-0.058l-0.689 72.537-2.292 0.103 1.63-72.58z" fill="url(#q)" opacity=".3"/>
</svg>
